PathFileType	4	(X/Y/Z)	pose_F01_0-83.trc
DataRate	CameraRate	NumFrames	NumMarkers	Units	OrigDataRate	OrigDataStartFrame	OrigNumFrames
30	30	7	21	m	30	51	83
Frame#	Time	CHip			RHip			RKnee			RAnkle			RBigToe			RSmallToe			RHeel			LHip			LKnee			LAnkle			LBigToe			LSmallToe			LHeel			Neck			Nose			RShoulder			RElbow			RWrist			LShoulder			LElbow			LWrist			
		X1	Y1	Z1	X2	Y2	Z2	X3	Y3	Z3	X4	Y4	Z4	X5	Y5	Z5	X6	Y6	Z6	X7	Y7	Z7	X8	Y8	Z8	X9	Y9	Z9	X10	Y10	Z10	X11	Y11	Z11	X12	Y12	Z12	X13	Y13	Z13	X14	Y14	Z14	X15	Y15	Z15	X16	Y16	Z16	X17	Y17	Z17	X18	Y18	Z18	X19	Y19	Z19	X20	Y20	Z20	X21	Y21	Z21	
51	1.7	-0.26896323185645343	1.883186721147416	-0.48777976194198674	-0.27640184081933894	1.880475625151253	-0.426342017106739	-0.27182420322069045	1.725152651024652	-0.39605408059544456	-0.27393191381067544	1.5685930326338737	-0.3506092524086962	-0.23586823618348338	1.5284976755562385	-0.3795372580348037	-0.2436893573746614	1.529376873506857	-0.3414183809491448	-0.2857402951491681	1.5592971685671608	-0.34141607417631	-0.26171552501797724	1.884963118002412	-0.5520807217016924	-0.26767066506689186	1.732407801762731	-0.5365943913438904	-0.2762460394838595	1.5943668924717316	-0.5227922407832016	-0.24446750922418184	1.5600264456814488	-0.574863580915425	-0.2501355548934238	1.568950676737505	-0.591911499461217	-0.286080489991197	1.5792684019981917	-0.49744017463936824	-0.27599964693346596	2.0428768235659907	-0.49381760340854225	-0.24895501940520492	2.096564711946107	-0.46745920996244944	-0.29006568089727375	2.041162631506169	-0.40805103916467045	-0.2661053959212934	2.0053215549919994	-0.32151536595752084	-0.2622074503272585	2.0663867178582214	-0.3966952544468586	-0.25851787313090846	2.045301499883662	-0.5837846162984394	-0.2571985057336776	1.9621734503103256	-0.6205181154537422	-0.23959949651066448	1.889987272349958	-0.6675400125606141
52	1.7333333333333334	-0.2679717958495297	1.882012810985208	-0.4930017492543002	-0.275292873875865	1.8803053496320412	-0.4316817979882386	-0.2717635620424369	1.7282446890409953	-0.39658432111870806	-0.2739119010855012	1.5686915989225965	-0.3506835799099324	-0.23713536394517187	1.525676655167675	-0.3776733191476289	-0.2448173826516332	1.528436112635312	-0.33988105888404746	-0.2852948640020897	1.5624621200876712	-0.342639113583517	-0.25548333532408357	1.8837224288341796	-0.5586808827139377	-0.26765754339863146	1.7325798849936775	-0.5367006109446935	-0.27635891820918534	1.5926096205250417	-0.5223428535904844	-0.2439422622449956	1.5572757898863876	-0.5751644009867882	-0.25033078805921855	1.5673642750917969	-0.5958404340298623	-0.2862060187916327	1.5777607837099767	-0.49700876141241945	-0.27116319715367854	2.041882147279488	-0.5027797506371346	-0.25672710000103377	2.0987100958695577	-0.4592988413413156	-0.28842934240094253	2.039200878558683	-0.41810397232613544	-0.2789111549557834	2.0129037572125426	-0.3089135009113277	-0.2636972279287891	2.07480909625415	-0.3944248159277549	-0.25122661230950316	2.045696584649213	-0.5955596143432186	-0.24630733494547558	1.9641490046321861	-0.6403919170510141	-0.23413700053449876	1.8896129208428427	-0.677386431799872
53	1.7666666666666666	-0.26913258316494776	1.8808093127437944	-0.49608329879199686	-0.27648571886537465	1.879164474584902	-0.4346523852472558	-0.2730803497006574	1.727008510694197	-0.3996037360179961	-0.27363113942303213	1.569680382113907	-0.35111250718062215	-0.2390770521080761	1.5302053153295683	-0.37648251732685867	-0.24636175357547926	1.5312602023285986	-0.33892862726738404	-0.28522810126612863	1.5646732092452216	-0.343058326856508	-0.2544473957948333	1.881302367124948	-0.5636311931665362	-0.2674590337842499	1.730868048569801	-0.5367295389783852	-0.27628621584788843	1.5946259390138335	-0.5228552835823936	-0.24666759800151736	1.5575296689003528	-0.572463563854817	-0.2510267369123016	1.5678315137523167	-0.5952463457403686	-0.2868187562675842	1.5778775005508232	-0.5006421008540125	-0.2672451354525779	2.0406889973715985	-0.5072700590208835	-0.2618128334960652	2.0982020706433335	-0.45906395687733215	-0.28295844786738933	2.0365506338926	-0.42460546068879534	-0.2813759958503342	2.014654052511756	-0.3014407133637003	-0.27754520822797385	2.074582515821836	-0.3754346932415119	-0.249162136637402	2.0456798924719513	-0.5978705995844951	-0.2441785748853562	1.9656307202405126	-0.6430796480639408	-0.23056622892209716	1.894890898453656	-0.677141644369504
54	1.8	-0.2680629178699883	1.88075402428167	-0.49293015314204325	-0.2753397182622272	1.8776795932831234	-0.4312330376072593	-0.2728965923023255	1.728134497158954	-0.39982154033638867	-0.27551704607918887	1.5720836286489093	-0.34945853151521533	-0.2410032592829738	1.530372281306058	-0.37421769442416813	-0.24709540391257603	1.530882018387115	-0.3334821995493746	-0.2855067352041483	1.5661290293601475	-0.3430251826891965	-0.2524180901290647	1.8828320243592103	-0.5659849361919911	-0.26532985945820264	1.7332653917230756	-0.5392334417726166	-0.27725053184695075	1.5944369819816688	-0.525998530053135	-0.246661807002213	1.5574715788278035	-0.5725623877739061	-0.25097238707947367	1.5675677946606705	-0.5953120429046184	-0.28685488713798096	1.5781425278606778	-0.5006220392125569	-0.2662326926113301	2.041836637794019	-0.5124027908602353	-0.26480719121166446	2.1014844296342705	-0.46865154587556446	-0.28393906479074815	2.0391282548738583	-0.4283393146640735	-0.282048451625833	2.0222667670057315	-0.3056888465616855	-0.27765526959822423	2.0766851853559025	-0.37584679333293597	-0.2481260326917265	2.0458168467055153	-0.602985580780242	-0.24197059849904975	1.966928939670835	-0.6453111936342951	-0.22605568139532814	1.8974951054780569	-0.681883073425856
55	1.8333333333333333	-0.26705841048315176	1.8834982824488045	-0.4986072877037519	-0.2744908020746401	1.881862564271435	-0.4371829337156708	-0.27308169271790644	1.7268233762717078	-0.3995109071239068	-0.2739218897374681	1.5685175215974487	-0.3507186142330501	-0.23704651541060381	1.5296853110368815	-0.3789157710516721	-0.24493844558159583	1.531224289657611	-0.3405222794987275	-0.2853875943329203	1.5626636684087667	-0.34266568478459036	-0.25220822098994367	1.883998811130519	-0.5662359587303648	-0.2654471791896426	1.7308693848715155	-0.5387729472502067	-0.2762345051686429	1.5942215652870582	-0.5228046986270196	-0.2445260636187372	1.557149350175181	-0.5745020969108143	-0.2499191869545059	1.5673006280258068	-0.5921160524235515	-0.2870135377881568	1.5785931805693885	-0.5006042471567668	-0.2681793685768538	2.043171220880188	-0.5108604256360543	-0.2657949211938172	2.1042642760623944	-0.4724066192295863	-0.28501048891239517	2.039459986993392	-0.43147073516627854	-0.28315550118615385	2.0268862043466975	-0.3100862098032087	-0.27871516737260993	2.0788956322933076	-0.3794444100258407	-0.24921738589256398	2.047000380276003	-0.598385053215743	-0.24182933258243577	1.9694379449364252	-0.6456771483850166	-0.219805663614175	1.89999921853066	-0.6805930567608479
56	1.8666666666666667	-0.26614021320423054	1.8808499028920058	-0.49506873061541545	-0.2734492517133471	1.8777764543612467	-0.43339626927695046	-0.27292589397800127	1.725282253867267	-0.39941914202090206	-0.27579341461756585	1.5710422865520248	-0.3489129348475982	-0.23898090854727624	1.5297287683482608	-0.37675152654243294	-0.24472426113437015	1.532258823201851	-0.34100279722074367	-0.28566574954520363	1.564373481979178	-0.3423771087231046	-0.25237625643178163	1.8828454469953766	-0.5660285206507177	-0.2654260222106031	1.730890640081408	-0.5388456682093935	-0.2761338176005759	1.5939072886535626	-0.5228615952179009	-0.24458386713629643	1.5547553096811277	-0.5739407242248634	-0.24963105016438192	1.565972744412042	-0.5921220179017909	-0.2868407670724183	1.577923708440265	-0.5006760287268364	-0.2681611811618372	2.0418644809538558	-0.5101914031529433	-0.26765398642115995	2.104803429524845	-0.4785665072731412	-0.2877714387295822	2.036945764038016	-0.4235781088810492	-0.28140891157244785	2.027501093861297	-0.31226297967618605	-0.2794660774885576	2.081731129736511	-0.3825731629499464	-0.24915652602058505	2.045719636303716	-0.5979204192843731	-0.24383866334614454	1.9680416549536022	-0.6430962149978683	-0.2177118868621929	1.9016274498348134	-0.6830736142951432
57	1.9	-0.26703081183089256	1.883540127535701	-0.4986943939064246	-0.274446492729139	1.881851754290411	-0.4372668902806163	-0.27169855830257095	1.727032245139398	-0.396572244085979	-0.27579816692023895	1.5711183866225367	-0.34888225117318933	-0.2377177427825108	1.52810511111058	-0.3773862792380357	-0.2451278216501343	1.5293809540938323	-0.33984325450664654	-0.2856844727825163	1.5646516852123908	-0.34234085107619927	-0.2522851714344944	1.8854710995776574	-0.5665310453316436	-0.2663623671687771	1.7337770397462748	-0.5423584648419355	-0.27722597716857794	1.5940672603614987	-0.5260687308911525	-0.24381543183419122	1.5557382129653594	-0.5708148534204266	-0.24982105207172822	1.5670779766195955	-0.592134007781848	-0.2867790358465624	1.5773501546526738	-0.5007247615663387	-0.26720435075673143	2.0432985085530833	-0.5076342651178202	-0.2627046267983122	2.107475085478762	-0.49619930896379794	-0.2847224083958515	2.0392387520755424	-0.42308571166546893	-0.281223346727896	2.025904712552451	-0.31181880578883675	-0.2765968912345646	2.078000358464888	-0.3803736130562817	-0.24920197702761557	2.04718583351525	-0.598219690068023	-0.24301615412989927	1.969316528251754	-0.6403535257136743	-0.21775910290402478	1.9030458474779346	-0.6833276030369367
